<svg width="35" height="33" viewBox="0 0 35 33" fill="none" xmlns="http://www.w3.org/2000/svg">
<rect width="35" height="33" rx="6" fill="#7846AF"/>
<path d="M7.65625 21.6875C7.65625 22.2398 8.10397 22.6875 8.65625 22.6875H13.2188C13.771 22.6875 14.2188 22.2398 14.2188 21.6875V21.625C14.2188 21.0727 13.771 20.625 13.2188 20.625H8.65625C8.10397 20.625 7.65625 21.0727 7.65625 21.625V21.6875ZM8.65625 10.3125C8.10397 10.3125 7.65625 10.7602 7.65625 11.3125V11.375C7.65625 11.9273 8.10397 12.375 8.65625 12.375H26.3438C26.896 12.375 27.3438 11.9273 27.3438 11.375V11.3125C27.3438 10.7602 26.896 10.3125 26.3438 10.3125H8.65625ZM7.65625 16.5312C7.65625 17.0835 8.10397 17.5312 8.65625 17.5312H19.7812C20.3335 17.5312 20.7812 17.0835 20.7812 16.5312V16.4688C20.7812 15.9165 20.3335 15.4688 19.7812 15.4688H8.65625C8.10397 15.4688 7.65625 15.9165 7.65625 16.4688V16.5312Z" fill="white"/>
</svg>
