<svg width="95" height="93" viewBox="0 0 95 93" fill="none" xmlns="http://www.w3.org/2000/svg">
<path fill-rule="evenodd" clip-rule="evenodd" d="M44.7646 0.129397C29.3925 1.73537 17.2769 20.4012 19.3146 39.3385L19.5432 41.4619L22.1659 41.5786C30.8845 41.9658 39.7391 45.3887 45.9728 50.7813L47.5001 52.1027L49.0274 50.7813C55.2777 45.3742 64.1541 41.9418 72.8402 41.5731L75.4689 41.4615L75.6213 40.0508C78.038 17.662 63.0129 -1.7771 44.7646 0.129397ZM14.8698 19.4122C3.87897 22.4248 -2.60438 34.6454 1.00062 45.5538C1.65821 47.5444 1.59959 47.5121 2.47076 46.3658C3.87944 44.5123 6.56984 43.3264 11.6777 42.3079L14.1403 41.8169L13.9951 39.9503C13.436 32.756 14.3968 24.7162 16.4529 19.3842C16.6086 18.9803 16.4334 18.9834 14.8698 19.4122ZM78.4619 19.1231C78.4619 19.1582 78.632 19.6802 78.8399 20.2831C80.8352 26.0691 81.6167 33.6257 80.9418 40.6093L80.8234 41.8356L82.6554 42.1621C87.9697 43.1088 91.2845 44.5634 92.6616 46.5526C93.3346 47.5247 93.3529 47.5109 93.9996 45.5538C97.2242 35.7964 92.4129 24.7855 83.0282 20.4449C81.5438 19.7583 78.4619 18.8662 78.4619 19.1231ZM14.7763 47.1905C6.81356 48.2757 5.23259 49.5956 6.42342 54.1641C10.2204 68.7316 28.2262 77.6369 45.5323 73.5065L47.5504 73.0249L49.5184 73.5013C66.045 77.5022 83.855 69.2048 88.1672 55.4956C89.6248 50.8619 89.2273 49.4875 86.1484 48.5166C72.114 44.0902 55.418 48.9487 48.19 59.5621C47.4536 60.6433 47.5872 60.6773 46.4804 59.129C40.2728 50.4459 27.1492 45.5042 14.7763 47.1905ZM46.1097 78.8204C45.8038 78.9026 45.3187 79.0233 45.0318 79.0886L44.5102 79.2072L44.5684 85.0934C44.6396 92.3056 44.8968 93 47.4987 93C50.0768 93 50.3115 92.3201 50.2437 85.0545L50.1884 79.1293L49.1686 78.8912C48.0224 78.6235 46.9353 78.5983 46.1097 78.8204Z" fill="#DEC6FC"/>
</svg>
