<svg width="92" height="93" viewBox="0 0 92 93" fill="none" xmlns="http://www.w3.org/2000/svg">
<path fill-rule="evenodd" clip-rule="evenodd" d="M42.4107 0.118016C30.7666 1.64373 20.6579 10.2874 17.62 21.3162L17.2035 22.8274L16.3026 23.1194C10.668 24.9456 5.18981 29.818 2.43165 35.4567C-4.48107 49.5887 4.00151 66.5498 19.5751 69.7365C21.5952 70.15 21.6271 70.1394 20.9451 69.2851C16.5442 63.7713 14.7725 59.5871 12.4928 49.3257C12.4115 48.9587 12.4834 48.9463 15.2514 48.8448C21.7015 48.6085 27.4115 49.478 31.6033 51.3348C32.7989 51.8645 32.6586 52.0028 32.8991 50.0571C33.6573 43.9216 36.1784 37.4962 40.0916 31.727C41.4308 29.7524 45.7168 24.5367 46 24.5367C46.286 24.5367 50.5777 29.7641 51.9031 31.727C55.8556 37.5797 58.3413 43.9101 59.1009 50.0571C59.3415 52.0028 59.2011 51.8645 60.3967 51.3348C64.5918 49.4766 70.0003 48.6561 76.7497 48.8547C79.5373 48.9366 79.591 48.9456 79.5053 49.3204C77.0534 60.0365 75.4916 63.7264 71.0549 69.2851C70.3729 70.1394 70.4048 70.15 72.4249 69.7365C87.9985 66.5498 96.4811 49.5887 89.5683 35.4567C86.8102 29.818 81.332 24.9456 75.6974 23.1194L74.7965 22.8274L74.38 21.3162C71.5683 11.1093 62.6509 2.84271 51.9507 0.523891C50.2474 0.1546 44.1203 -0.105859 42.4107 0.118016ZM45.0607 33.59C41.7593 37.8485 39.2485 43.8236 38.1774 49.9722C37.885 51.6505 37.9141 58.8205 38.2206 60.5392L38.3258 61.1299L36.0162 59.6477C30.2732 55.9621 26.1232 54.4297 21.164 54.1635L19.03 54.0492L19.1547 54.7155C21.0411 64.7867 31.4755 74.1284 42.2761 75.4158L43.308 75.5389V83.7871V92.035H45.9982H48.6883L48.735 83.8112L48.7816 75.5874L50.0379 75.4494C58.9029 74.4768 66.3445 68.9503 70.6688 60.1283C71.5339 58.3635 72.9195 54.7394 72.9195 54.2415C72.9195 53.921 68.8975 54.233 66.8177 54.7143C63.2036 55.5514 60.3278 56.8599 56.0005 59.6371L53.7078 61.1085L53.847 59.8994C54.9156 50.6149 52.6603 41.624 47.4247 34.2964C45.9784 32.2723 46.0629 32.2974 45.0607 33.59Z" fill="#DEC6FC"/>
</svg>
